<svg width="60" height="60" viewBox="0 0 60 60" fill="none" xmlns="http://www.w3.org/2000/svg">
    <g filter="url(#filter0_i_1003_6041)">
        <rect width="60" height="60" rx="30" fill="url(#paint0_linear_1003_6041)"/>
        <path fill-rule="evenodd" clip-rule="evenodd" d="M28.5001 16.6875C26.6362 16.6875 25.1251 18.1985 25.1251 20.0625V21.5625C25.1251 22.1838 24.6215 22.6875 24.0001 22.6875C23.3788 22.6875 22.8751 22.1838 22.8751 21.5625V20.0625C22.8751 16.9559 25.3935 14.4375 28.5001 14.4375H31.5001C34.6067 14.4375 37.1251 16.9559 37.1251 20.0625V21.5625C37.1251 22.1838 36.6215 22.6875 36.0001 22.6875C35.3788 22.6875 34.8751 22.1838 34.8751 21.5625V20.0625C34.8751 18.1985 33.3641 16.6875 31.5001 16.6875H28.5001Z" fill="url(#paint1_linear_1003_6041)"/>
        <path d="M21 21.5625H39C42.3137 21.5625 45 24.2488 45 27.5625C45 27.5625 41.447 31.0395 32.4321 31.3913C32.3261 31.3954 32.234 31.3154 32.2155 31.211C32.029 30.1565 31.1081 29.3555 30 29.3555C28.9239 29.3555 28.0242 30.111 27.8024 31.1205C27.7797 31.2237 27.685 31.2997 27.5797 31.2918C18.5472 30.6172 15 27.5625 15 27.5625C15 24.2488 17.6863 21.5625 21 21.5625Z" fill="url(#paint2_linear_1003_6041)"/>
        <path d="M27.75 33.2942C27.75 33.1891 27.6669 33.1019 27.5622 33.0942C20.4694 32.5697 16.5079 30.7069 15 29.8314V39.5625C15 42.8762 17.6863 45.5625 21 45.5625H39C42.3137 45.5625 45 42.8762 45 39.5625V29.8941C43.4885 30.8845 39.5171 32.9597 32.4446 33.2507C32.337 33.2552 32.25 33.3435 32.25 33.4512V33.7055C32.25 34.9481 31.2426 35.9555 30 35.9555C28.7574 35.9555 27.75 34.9481 27.75 33.7055V33.2942Z" fill="url(#paint3_linear_1003_6041)"/>
        <path d="M28.8751 31.6875C28.8751 31.0662 29.3788 30.5625 30.0001 30.5625C30.6215 30.5625 31.1251 31.0662 31.1251 31.6875V33.6285C31.1251 34.2499 30.6215 34.7535 30.0001 34.7535C29.3788 34.7535 28.8751 34.2499 28.8751 33.6285V31.6875Z" fill="url(#paint4_linear_1003_6041)"/>
    </g>
    <defs>
        <filter id="filter0_i_1003_6041" x="-1" y="0" width="61" height="60" filterUnits="userSpaceOnUse" color-interpolation-filters="sRGB">
            <feFlood flood-opacity="0" result="BackgroundImageFix"/>
            <feBlend mode="normal" in="SourceGraphic" in2="BackgroundImageFix" result="shape"/>
            <feColorMatrix in="SourceAlpha" type="matrix" values="0 0 0 0 0 0 0 0 0 0 0 0 0 0 0 0 0 0 127 0" result="hardAlpha"/>
            <feOffset dx="-1"/>
            <feGaussianBlur stdDeviation="0.5"/>
            <feComposite in2="hardAlpha" operator="arithmetic" k2="-1" k3="1"/>
            <feColorMatrix type="matrix" values="0 0 0 0 1 0 0 0 0 1 0 0 0 0 1 0 0 0 0.2 0"/>
            <feBlend mode="normal" in2="shape" result="effect1_innerShadow_1003_6041"/>
        </filter>
        <linearGradient id="paint0_linear_1003_6041" x1="30" y1="0" x2="30" y2="60" gradientUnits="userSpaceOnUse">
            <stop stop-color="#343943"/>
            <stop offset="1"/>
        </linearGradient>
        <linearGradient id="paint1_linear_1003_6041" x1="30" y1="14.4375" x2="30" y2="45.5625" gradientUnits="userSpaceOnUse">
            <stop offset="0.356721" stop-color="#F5F7F9"/>
            <stop offset="1" stop-color="#F5F7F9" stop-opacity="0.7"/>
        </linearGradient>
        <linearGradient id="paint2_linear_1003_6041" x1="30" y1="14.4375" x2="30" y2="45.5625" gradientUnits="userSpaceOnUse">
            <stop offset="0.356721" stop-color="#F5F7F9"/>
            <stop offset="1" stop-color="#F5F7F9" stop-opacity="0.7"/>
        </linearGradient>
        <linearGradient id="paint3_linear_1003_6041" x1="30" y1="14.4375" x2="30" y2="45.5625" gradientUnits="userSpaceOnUse">
            <stop offset="0.356721" stop-color="#F5F7F9"/>
            <stop offset="1" stop-color="#F5F7F9" stop-opacity="0.7"/>
        </linearGradient>
        <linearGradient id="paint4_linear_1003_6041" x1="30" y1="14.4375" x2="30" y2="45.5625" gradientUnits="userSpaceOnUse">
            <stop offset="0.356721" stop-color="#F5F7F9"/>
            <stop offset="1" stop-color="#F5F7F9" stop-opacity="0.7"/>
        </linearGradient>
    </defs>
</svg>
