<svg width="81" height="35" viewBox="0 0 81 35" fill="none" xmlns="http://www.w3.org/2000/svg">
    <path d="M3.50382 22.1873V26.5162H6.83214C7.11861 26.5196 7.40266 26.464 7.66612 26.3529C7.92957 26.2418 8.16663 26.0776 8.36211 25.8709C8.55759 25.6641 8.70719 25.4194 8.80134 25.1523C8.89548 24.8852 8.93211 24.6016 8.90885 24.3197C8.92966 24.0406 8.89101 23.7602 8.79538 23.4967C8.69975 23.2332 8.54927 22.9924 8.35363 22.7898C8.15799 22.5872 7.92153 22.4272 7.65948 22.3203C7.39743 22.2134 7.11559 22.1619 6.83214 22.169L3.50382 22.1873ZM0.5 19.5973H7.101C7.74633 19.5693 8.39072 19.6705 8.99534 19.895C9.59996 20.1194 10.1523 20.4624 10.619 20.9032C11.0857 21.3441 11.4571 21.8737 11.7108 22.4601C11.9646 23.0464 12.0954 23.6775 12.0954 24.3151C12.0954 24.9528 11.9646 25.5838 11.7108 26.1702C11.4571 26.7566 11.0857 27.2862 10.619 27.727C10.1523 28.1679 9.59996 28.5109 8.99534 28.7353C8.39072 28.9598 7.74633 29.061 7.101 29.0329H3.50382V34.9633H0.5V19.5973Z" fill="#0D0F11"/>
    <path d="M28.1744 34.9636H24.8553L20.0344 23.1028L15.2041 34.9636H12.0242L18.5881 19.5977H21.6104L28.1744 34.9636Z" fill="#0D0F11"/>
    <path d="M32.1791 22.1878V26.2054H35.0253C35.3074 26.2269 35.5908 26.1905 35.8579 26.0985C36.125 26.0066 36.3699 25.861 36.5771 25.671C36.7844 25.481 36.9496 25.2507 37.0623 24.9946C37.175 24.7385 37.2327 24.4621 37.2319 24.1829C37.233 23.9047 37.1753 23.6294 37.0623 23.3746C36.9494 23.1198 36.7837 22.8911 36.5759 22.7032C36.3681 22.5154 36.1229 22.3725 35.8558 22.2837C35.5888 22.1949 35.3059 22.1622 35.0253 22.1878H32.1791ZM29.1846 35.0004V19.5978H35.5167C36.134 19.5844 36.7478 19.6928 37.322 19.9168C37.8962 20.1407 38.4193 20.4757 38.8606 20.9019C39.302 21.3282 39.6526 21.8372 39.8919 22.399C40.1312 22.9609 40.2544 23.5642 40.2542 24.1737C40.2489 25.063 39.9754 25.9306 39.4684 26.6657C38.9615 27.4009 38.2442 27.9702 37.408 28.3012L41.2926 34.9638H37.8994L34.3578 28.6856H32.1791V34.9638L29.1846 35.0004Z" fill="#0D0F11"/>
    <path d="M45.4462 19.5977V26.1138L51.5558 19.5977H55.3199L48.0421 27.1937L55.496 34.9636H51.4909L45.4462 28.5299V34.9636H42.4424V19.5977H45.4462Z" fill="#0D0F11"/>
    <path d="M56.46 19.5977H66.2687V22.1876H59.4638V25.9857H66.0462V28.5024H59.4638V32.3737H66.2687V34.9636H56.46V19.5977Z" fill="#0D0F11"/>
    <path d="M71.4052 22.1878V26.2054H74.2607C74.5423 26.227 74.8253 26.1906 75.0919 26.0985C75.3585 26.0064 75.6028 25.8607 75.8094 25.6706C76.0159 25.4804 76.1802 25.25 76.2919 24.9939C76.4035 24.7379 76.4601 24.4617 76.4579 24.1829C76.459 23.9056 76.4015 23.6311 76.2891 23.377C76.1767 23.1228 76.0119 22.8946 75.8051 22.7069C75.5984 22.5192 75.3542 22.376 75.0883 22.2867C74.8224 22.1973 74.5405 22.1636 74.2607 22.1878H71.4052ZM68.4106 35.0004V19.5978H74.7428C75.3601 19.5844 75.9738 19.6928 76.5481 19.9168C77.1223 20.1407 77.6454 20.4757 78.0867 20.9019C78.528 21.3282 78.8786 21.8372 79.1179 22.399C79.3572 22.9609 79.4804 23.5642 79.4803 24.1737C79.475 25.063 79.2014 25.9306 78.6945 26.6657C78.1876 27.4009 77.4702 27.9702 76.6341 28.3012L80.5001 34.9546H77.1254L73.5839 28.6764H71.4052V34.9546L68.4106 35.0004Z" fill="#0D0F11"/>
    <path d="M0.5 15.6531V0.287109H10.3088V2.87709H3.49455V6.69342H10.0863V9.21934H3.49455V15.6531H0.5Z" fill="#0D0F11"/>
    <path d="M25.5132 15.6531H22.2035L17.3732 3.80143L12.5523 15.6531H9.37231L15.927 0.287109H18.9586L25.5132 15.6531Z" fill="#0D0F11"/>
    <path d="M36.3325 15.6531H26.5237V0.287109H29.5275V13.0631H36.3325V15.6531Z" fill="#0D0F11"/>
    <path d="M39.7815 10.8942C40.004 12.4683 41.1629 13.4567 43.0727 13.4567C44.8157 13.4567 45.7057 12.6513 45.7057 11.544C45.7057 10.6288 44.964 9.94238 43.7866 9.65867L41.1443 8.99974C38.363 8.3042 37.0002 6.91311 37.0002 4.61599C37.0002 1.87043 39.3365 0.0400555 42.3866 0.0400555C43.8203 -0.0349461 45.2293 0.431138 46.3277 1.34378C47.4261 2.25642 48.1318 3.5473 48.3016 4.95461H45.3627C45.268 4.24872 44.9071 3.60406 44.3519 3.14938C43.7968 2.69471 43.0884 2.46349 42.3681 2.50191C41.0053 2.50191 39.9854 3.19745 39.9854 4.41465C39.9854 5.3939 40.6993 5.97047 41.8953 6.24503L44.5283 6.93142C47.4394 7.67272 48.6817 8.99059 48.6817 11.2969C48.6817 13.9051 46.4752 15.8728 43.0542 15.8728C39.6331 15.8728 37.1207 13.8228 36.8704 10.8484L39.7815 10.8942Z" fill="#0D0F11"/>
    <path d="M58.4902 0.00334671C59.7903 0.00262772 61.0725 0.301799 62.2347 0.877C63.3968 1.4522 64.4068 2.28751 65.1839 3.31632L62.8569 5.00942C62.3719 4.31604 61.7277 3.74568 60.9769 3.34487C60.2261 2.94407 59.3899 2.72418 58.5366 2.70315C57.1624 2.75976 55.8636 3.33844 54.9116 4.31827C53.9595 5.2981 53.428 6.60323 53.428 7.9609C53.428 9.31857 53.9595 10.6237 54.9116 11.6035C55.8636 12.5834 57.1624 13.162 58.5366 13.2187C59.4024 13.2263 60.2566 13.0211 61.0221 12.6217C61.7876 12.2223 62.4404 11.6412 62.9218 10.9307L65.2488 12.6238C64.483 13.6622 63.4767 14.5047 62.3139 15.081C61.151 15.6573 59.8655 15.9507 58.5644 15.9368C57.4819 15.9776 56.4022 15.803 55.3895 15.4233C54.3768 15.0437 53.4519 14.4668 52.6697 13.727C51.8875 12.9873 51.2641 12.0997 50.8366 11.1171C50.4091 10.1346 50.1862 9.07722 50.1812 8.00791C50.1763 6.93859 50.3893 5.87922 50.8076 4.89286C51.226 3.90649 51.8411 3.01329 52.6163 2.26644C53.3916 1.51958 54.3111 0.934341 55.3203 0.545549C56.3294 0.156756 57.4074 -0.0276353 58.4902 0.00334671Z" fill="#0D0F11"/>
    <path d="M66.6025 15.6531V0.287109H69.5971V6.65681H76.4299V0.287109H79.4337V15.6531H76.4299V9.24679H69.5971V15.6531H66.6025Z" fill="#0D0F11"/>
</svg>
