<svg width="60" height="60" viewBox="0 0 60 60" fill="none" xmlns="http://www.w3.org/2000/svg">
    <g filter="url(#filter0_i_1447_3096)">
        <rect width="60" height="60" rx="30" fill="url(#paint0_linear_1447_3096)"/>
        <path d="M27 15C25.3431 15 24 16.3431 24 18C24 19.6569 25.3431 21 27 21H33C34.6569 21 36 19.6569 36 18C36 16.3431 34.6569 15 33 15H27Z" fill="url(#paint1_linear_1447_3096)"/>
        <path fill-rule="evenodd" clip-rule="evenodd" d="M21.75 18.0001H20.5C18.2909 18.0001 16.5 19.791 16.5 22.0001V41.0001C16.5 43.2093 18.2909 45.0001 20.5 45.0001H39.5C41.7091 45.0001 43.5 43.2093 43.5 41.0001V22.0001C43.5 19.791 41.7091 18.0001 39.5 18.0001H38.25C38.25 20.8996 35.8995 23.2501 33 23.2501H27C24.1005 23.2501 21.75 20.8996 21.75 18.0001ZM23.25 27C23.25 26.5858 23.5858 26.25 24 26.25H36C36.4142 26.25 36.75 26.5858 36.75 27C36.75 27.4142 36.4142 27.75 36 27.75H24C23.5858 27.75 23.25 27.4142 23.25 27ZM24 32.25C23.5858 32.25 23.25 32.5858 23.25 33C23.25 33.4142 23.5858 33.75 24 33.75H36C36.4142 33.75 36.75 33.4142 36.75 33C36.75 32.5858 36.4142 32.25 36 32.25H24ZM23.25 39C23.25 38.5858 23.5858 38.25 24 38.25H30C30.4142 38.25 30.75 38.5858 30.75 39C30.75 39.4142 30.4142 39.75 30 39.75H24C23.5858 39.75 23.25 39.4142 23.25 39Z" fill="url(#paint2_linear_1447_3096)"/>
    </g>
    <defs>
        <filter id="filter0_i_1447_3096" x="-1" y="0" width="61" height="60" filterUnits="userSpaceOnUse" color-interpolation-filters="sRGB">
            <feFlood flood-opacity="0" result="BackgroundImageFix"/>
            <feBlend mode="normal" in="SourceGraphic" in2="BackgroundImageFix" result="shape"/>
            <feColorMatrix in="SourceAlpha" type="matrix" values="0 0 0 0 0 0 0 0 0 0 0 0 0 0 0 0 0 0 127 0" result="hardAlpha"/>
            <feOffset dx="-1"/>
            <feGaussianBlur stdDeviation="0.5"/>
            <feComposite in2="hardAlpha" operator="arithmetic" k2="-1" k3="1"/>
            <feColorMatrix type="matrix" values="0 0 0 0 1 0 0 0 0 1 0 0 0 0 1 0 0 0 0.2 0"/>
            <feBlend mode="normal" in2="shape" result="effect1_innerShadow_1447_3096"/>
        </filter>
        <linearGradient id="paint0_linear_1447_3096" x1="30" y1="0" x2="30" y2="60" gradientUnits="userSpaceOnUse">
            <stop stop-color="#343943"/>
            <stop offset="1"/>
        </linearGradient>
        <linearGradient id="paint1_linear_1447_3096" x1="30" y1="15" x2="30" y2="45.0001" gradientUnits="userSpaceOnUse">
            <stop offset="0.356721" stop-color="#F5F7F9"/>
            <stop offset="1" stop-color="#F5F7F9" stop-opacity="0.7"/>
        </linearGradient>
        <linearGradient id="paint2_linear_1447_3096" x1="30" y1="15" x2="30" y2="45.0001" gradientUnits="userSpaceOnUse">
            <stop offset="0.356721" stop-color="#F5F7F9"/>
            <stop offset="1" stop-color="#F5F7F9" stop-opacity="0.7"/>
        </linearGradient>
    </defs>
</svg>
