<svg width="60" height="60" viewBox="0 0 60 60" fill="none" xmlns="http://www.w3.org/2000/svg">
    <g filter="url(#filter0_i_338_1141)">
        <rect width="60" height="60" rx="30" fill="url(#paint0_linear_338_1141)"/>
        <path fill-rule="evenodd" clip-rule="evenodd" d="M43.6954 33.2204C45.4349 31.3902 45.4349 28.6098 43.6954 26.7796C40.7618 23.693 35.7233 19.5 30 19.5C24.2767 19.5 19.2382 23.693 16.3046 26.7796C14.5651 28.6098 14.5651 31.3902 16.3046 33.2204C19.2382 36.307 24.2767 40.5 30 40.5C35.7233 40.5 40.7618 36.307 43.6954 33.2204ZM30 34.5C32.4853 34.5 34.5 32.4853 34.5 30C34.5 27.5147 32.4853 25.5 30 25.5C27.5147 25.5 25.5 27.5147 25.5 30C25.5 32.4853 27.5147 34.5 30 34.5Z" fill="url(#paint1_linear_338_1141)"/>
    </g>
    <defs>
        <filter id="filter0_i_338_1141" x="-1" y="0" width="61" height="60" filterUnits="userSpaceOnUse" color-interpolation-filters="sRGB">
            <feFlood flood-opacity="0" result="BackgroundImageFix"/>
            <feBlend mode="normal" in="SourceGraphic" in2="BackgroundImageFix" result="shape"/>
            <feColorMatrix in="SourceAlpha" type="matrix" values="0 0 0 0 0 0 0 0 0 0 0 0 0 0 0 0 0 0 127 0" result="hardAlpha"/>
            <feOffset dx="-1"/>
            <feGaussianBlur stdDeviation="0.5"/>
            <feComposite in2="hardAlpha" operator="arithmetic" k2="-1" k3="1"/>
            <feColorMatrix type="matrix" values="0 0 0 0 1 0 0 0 0 1 0 0 0 0 1 0 0 0 0.2 0"/>
            <feBlend mode="normal" in2="shape" result="effect1_innerShadow_338_1141"/>
        </filter>
        <linearGradient id="paint0_linear_338_1141" x1="30" y1="0" x2="30" y2="60" gradientUnits="userSpaceOnUse">
            <stop stop-color="#343943"/>
            <stop offset="1"/>
        </linearGradient>
        <linearGradient id="paint1_linear_338_1141" x1="30" y1="19.5" x2="30" y2="40.5" gradientUnits="userSpaceOnUse">
            <stop offset="0.356721" stop-color="#F5F7F9"/>
            <stop offset="1" stop-color="#F5F7F9" stop-opacity="0.7"/>
        </linearGradient>
    </defs>
</svg>
