<svg width="60" height="60" viewBox="0 0 60 60" fill="none" xmlns="http://www.w3.org/2000/svg">
    <g filter="url(#filter0_i_2779_6146)">
        <rect width="60" height="60" rx="30" fill="url(#paint0_linear_2779_6146)"/>
        <path fill-rule="evenodd" clip-rule="evenodd" d="M16.5 20.4C16.5 17.4177 18.9177 15 21.9 15H35.1C38.0823 15 40.5 17.4177 40.5 20.4V36.75H27.45C26.7873 36.75 26.25 37.2873 26.25 37.95C26.25 40.601 24.0638 42.75 21.4128 42.75C18.7204 42.75 16.5 40.5674 16.5 37.875V20.4ZM22.5 21.375C21.8787 21.375 21.375 21.8787 21.375 22.5C21.375 23.1213 21.8787 23.625 22.5 23.625H34.5C35.1213 23.625 35.625 23.1213 35.625 22.5C35.625 21.8787 35.1213 21.375 34.5 21.375H22.5ZM21.375 30C21.375 29.3787 21.8787 28.875 22.5 28.875H28.5C29.1213 28.875 29.625 29.3787 29.625 30C29.625 30.6213 29.1213 31.125 28.5 31.125H22.5C21.8787 31.125 21.375 30.6213 21.375 30Z" fill="url(#paint1_linear_2779_6146)"/>
        <path d="M46.3149 40.4848C45.6541 43.0804 43.3012 45 40.5 45H22.5C25.3012 45 27.6541 43.0804 28.3149 40.4848C28.5192 39.682 29.1716 39 30 39H45C45.8284 39 46.5192 39.682 46.3149 40.4848Z" fill="url(#paint2_linear_2779_6146)"/>
    </g>
    <defs>
        <filter id="filter0_i_2779_6146" x="-1" y="0" width="61" height="60" filterUnits="userSpaceOnUse" color-interpolation-filters="sRGB">
            <feFlood flood-opacity="0" result="BackgroundImageFix"/>
            <feBlend mode="normal" in="SourceGraphic" in2="BackgroundImageFix" result="shape"/>
            <feColorMatrix in="SourceAlpha" type="matrix" values="0 0 0 0 0 0 0 0 0 0 0 0 0 0 0 0 0 0 127 0" result="hardAlpha"/>
            <feOffset dx="-1"/>
            <feGaussianBlur stdDeviation="0.5"/>
            <feComposite in2="hardAlpha" operator="arithmetic" k2="-1" k3="1"/>
            <feColorMatrix type="matrix" values="0 0 0 0 1 0 0 0 0 1 0 0 0 0 1 0 0 0 0.2 0"/>
            <feBlend mode="normal" in2="shape" result="effect1_innerShadow_2779_6146"/>
        </filter>
        <linearGradient id="paint0_linear_2779_6146" x1="30" y1="0" x2="30" y2="60" gradientUnits="userSpaceOnUse">
            <stop stop-color="#343943"/>
            <stop offset="1"/>
        </linearGradient>
        <linearGradient id="paint1_linear_2779_6146" x1="31.4255" y1="15" x2="31.4255" y2="45" gradientUnits="userSpaceOnUse">
            <stop offset="0.356721" stop-color="#F5F7F9"/>
            <stop offset="1" stop-color="#F5F7F9" stop-opacity="0.7"/>
        </linearGradient>
        <linearGradient id="paint2_linear_2779_6146" x1="31.4255" y1="15" x2="31.4255" y2="45" gradientUnits="userSpaceOnUse">
            <stop offset="0.356721" stop-color="#F5F7F9"/>
            <stop offset="1" stop-color="#F5F7F9" stop-opacity="0.7"/>
        </linearGradient>
    </defs>
</svg>
