<svg width="60" height="60" viewBox="0 0 60 60" fill="none" xmlns="http://www.w3.org/2000/svg">
    <g filter="url(#filter0_i_833_188)">
        <rect width="60" height="60" rx="30" fill="url(#paint0_linear_833_188)"/>
        <path d="M30.2889 43.5H22.6231C20.7876 43.5 19.1877 42.2508 18.7425 40.4701L15.6212 27.9851C15.3057 26.7228 16.2604 25.5 17.5615 25.5H27L23.5911 20.3868C22.4836 18.7254 23.6745 16.5 25.6713 16.5H30L35.8682 26.7694C35.9546 26.9205 36 27.0915 36 27.2656V39.9648C36 40.2992 35.8329 40.6114 35.5547 40.7969L32.5077 42.8282C31.8506 43.2662 31.0786 43.5 30.2889 43.5Z" fill="url(#paint1_linear_833_188)"/>
        <path d="M43 24H40.25C39.1454 24 38.25 24.8954 38.25 26V41.5C38.25 42.6046 39.1454 43.5 40.25 43.5H43C44.1045 43.5 45 42.6046 45 41.5V26C45 24.8954 44.1045 24 43 24Z" fill="url(#paint2_linear_833_188)"/>
    </g>
    <defs>
        <filter id="filter0_i_833_188" x="-1" y="0" width="61" height="60" filterUnits="userSpaceOnUse" color-interpolation-filters="sRGB">
            <feFlood flood-opacity="0" result="BackgroundImageFix"/>
            <feBlend mode="normal" in="SourceGraphic" in2="BackgroundImageFix" result="shape"/>
            <feColorMatrix in="SourceAlpha" type="matrix" values="0 0 0 0 0 0 0 0 0 0 0 0 0 0 0 0 0 0 127 0" result="hardAlpha"/>
            <feOffset dx="-1"/>
            <feGaussianBlur stdDeviation="0.5"/>
            <feComposite in2="hardAlpha" operator="arithmetic" k2="-1" k3="1"/>
            <feColorMatrix type="matrix" values="0 0 0 0 1 0 0 0 0 1 0 0 0 0 1 0 0 0 0.2 0"/>
            <feBlend mode="normal" in2="shape" result="effect1_innerShadow_833_188"/>
        </filter>
        <linearGradient id="paint0_linear_833_188" x1="30" y1="0" x2="30" y2="60" gradientUnits="userSpaceOnUse">
            <stop stop-color="#343943"/>
            <stop offset="1"/>
        </linearGradient>
        <linearGradient id="paint1_linear_833_188" x1="30.2803" y1="16.5" x2="30.2803" y2="43.5" gradientUnits="userSpaceOnUse">
            <stop offset="0.356721" stop-color="#F5F7F9"/>
            <stop offset="1" stop-color="#F5F7F9" stop-opacity="0.7"/>
        </linearGradient>
        <linearGradient id="paint2_linear_833_188" x1="30.2803" y1="16.5" x2="30.2803" y2="43.5" gradientUnits="userSpaceOnUse">
            <stop offset="0.356721" stop-color="#F5F7F9"/>
            <stop offset="1" stop-color="#F5F7F9" stop-opacity="0.7"/>
        </linearGradient>
    </defs>
</svg>
