<svg width="60" height="60" viewBox="0 0 60 60" fill="none" xmlns="http://www.w3.org/2000/svg">
    <g filter="url(#filter0_i_252_424)">
        <rect width="60" height="60" rx="30" fill="url(#paint0_linear_252_424)"/>
        <path d="M37.5 17.0067C35.2937 15.7305 32.7322 15 30 15C21.7157 15 15 21.7157 15 30C15 38.2843 21.7157 45 30 45C38.2843 45 45 38.2843 45 30C45 28.153 44.6662 26.384 44.0556 24.75M22.5 27L27.7896 31.2317C29.0306 32.2245 30.8305 32.0773 31.8936 30.896L43.5 18" stroke="url(#paint1_linear_252_424)" strokeWidth="2.5" strokeLinecap="round"/>
    </g>
    <defs>
        <filter id="filter0_i_252_424" x="-1" y="0" width="61" height="60" filterUnits="userSpaceOnUse" color-interpolation-filters="sRGB">
            <feFlood flood-opacity="0" result="BackgroundImageFix"/>
            <feBlend mode="normal" in="SourceGraphic" in2="BackgroundImageFix" result="shape"/>
            <feColorMatrix in="SourceAlpha" type="matrix" values="0 0 0 0 0 0 0 0 0 0 0 0 0 0 0 0 0 0 127 0" result="hardAlpha"/>
            <feOffset dx="-1"/>
            <feGaussianBlur stdDeviation="0.5"/>
            <feComposite in2="hardAlpha" operator="arithmetic" k2="-1" k3="1"/>
            <feColorMatrix type="matrix" values="0 0 0 0 1 0 0 0 0 1 0 0 0 0 1 0 0 0 0.2 0"/>
            <feBlend mode="normal" in2="shape" result="effect1_innerShadow_252_424"/>
        </filter>
        <linearGradient id="paint0_linear_252_424" x1="30" y1="0" x2="30" y2="60" gradientUnits="userSpaceOnUse">
            <stop stop-color="#343943"/>
            <stop offset="1"/>
        </linearGradient>
        <linearGradient id="paint1_linear_252_424" x1="30" y1="15" x2="30" y2="45" gradientUnits="userSpaceOnUse">
            <stop offset="0.31" stop-color="#F5F7F9"/>
            <stop offset="1" stop-color="#F5F7F9" stop-opacity="0.7"/>
        </linearGradient>
    </defs>
</svg>
