<svg width="60" height="60" viewBox="0 0 60 60" fill="none" xmlns="http://www.w3.org/2000/svg">
<g filter="url(#filter0_i_252_422)">
<rect width="60" height="60" rx="30" fill="url(#paint0_linear_252_422)"/>
<path fill-rule="evenodd" clip-rule="evenodd" d="M24.6094 17.8359L22.5 21H21C17.6863 21 15 23.6863 15 27V37.5C15 40.8137 17.6863 43.5 21 43.5H39C42.3137 43.5 45 40.8137 45 37.5V27C45 23.6863 42.3137 21 39 21H37.5L35.3906 17.8359C34.8342 17.0013 33.8975 16.5 32.8944 16.5H27.1056C26.1025 16.5 25.1658 17.0013 24.6094 17.8359ZM34.5 32.25C34.5 34.7353 32.4853 36.75 30 36.75C27.5147 36.75 25.5 34.7353 25.5 32.25C25.5 29.7647 27.5147 27.75 30 27.75C32.4853 27.75 34.5 29.7647 34.5 32.25ZM30 22.5C30.8284 22.5 31.5 21.8284 31.5 21C31.5 20.1716 30.8284 19.5 30 19.5C29.1716 19.5 28.5 20.1716 28.5 21C28.5 21.8284 29.1716 22.5 30 22.5Z" fill="url(#paint1_linear_252_422)"/>
</g>
<defs>
<filter id="filter0_i_252_422" x="-1" y="0" width="61" height="60" filterUnits="userSpaceOnUse" color-interpolation-filters="sRGB">
<feFlood flood-opacity="0" result="BackgroundImageFix"/>
<feBlend mode="normal" in="SourceGraphic" in2="BackgroundImageFix" result="shape"/>
<feColorMatrix in="SourceAlpha" type="matrix" values="0 0 0 0 0 0 0 0 0 0 0 0 0 0 0 0 0 0 127 0" result="hardAlpha"/>
<feOffset dx="-1"/>
<feGaussianBlur stdDeviation="0.5"/>
<feComposite in2="hardAlpha" operator="arithmetic" k2="-1" k3="1"/>
<feColorMatrix type="matrix" values="0 0 0 0 1 0 0 0 0 1 0 0 0 0 1 0 0 0 0.2 0"/>
<feBlend mode="normal" in2="shape" result="effect1_innerShadow_252_422"/>
</filter>
<linearGradient id="paint0_linear_252_422" x1="30" y1="0" x2="30" y2="60" gradientUnits="userSpaceOnUse">
<stop stop-color="#343943"/>
<stop offset="1"/>
</linearGradient>
<linearGradient id="paint1_linear_252_422" x1="30" y1="16.5" x2="30" y2="43.5" gradientUnits="userSpaceOnUse">
<stop offset="0.356721" stop-color="#F5F7F9"/>
<stop offset="1" stop-color="#F5F7F9" stop-opacity="0.7"/>
</linearGradient>
</defs>
</svg>
