<svg width="60" height="60" viewBox="0 0 60 60" fill="none" xmlns="http://www.w3.org/2000/svg">
    <g filter="url(#filter0_i_862_1496)">
        <rect width="60" height="60" rx="30" fill="url(#paint0_linear_862_1496)"/>
        <path fill-rule="evenodd" clip-rule="evenodd" d="M15 21C15 17.6863 17.6863 15 21 15H39C42.3137 15 45 17.6863 45 21V30.6735L41.6302 28.4678C39.0285 26.7649 35.6229 26.9459 33.2163 28.9149L25.359 35.3436C23.7124 36.6908 21.3822 36.8146 19.6021 35.6495L15 32.6372V21ZM40.3979 30.3504L45 33.3627V39C45 42.3137 42.3137 45 39 45H21C17.6863 45 15 42.3137 15 39V35.3263L18.3699 37.5321C20.9716 39.235 24.3772 39.054 26.7838 37.085L34.6411 30.6563C36.2877 29.3091 38.6178 29.1853 40.3979 30.3504ZM24.75 28.5C26.8211 28.5 28.5 26.8211 28.5 24.75C28.5 22.6789 26.8211 21 24.75 21C22.6789 21 21 22.6789 21 24.75C21 26.8211 22.6789 28.5 24.75 28.5Z" fill="url(#paint1_linear_862_1496)"/>
    </g>
    <defs>
        <filter id="filter0_i_862_1496" x="-1" y="0" width="61" height="60" filterUnits="userSpaceOnUse" color-interpolation-filters="sRGB">
            <feFlood flood-opacity="0" result="BackgroundImageFix"/>
            <feBlend mode="normal" in="SourceGraphic" in2="BackgroundImageFix" result="shape"/>
            <feColorMatrix in="SourceAlpha" type="matrix" values="0 0 0 0 0 0 0 0 0 0 0 0 0 0 0 0 0 0 127 0" result="hardAlpha"/>
            <feOffset dx="-1"/>
            <feGaussianBlur stdDeviation="0.5"/>
            <feComposite in2="hardAlpha" operator="arithmetic" k2="-1" k3="1"/>
            <feColorMatrix type="matrix" values="0 0 0 0 1 0 0 0 0 1 0 0 0 0 1 0 0 0 0.2 0"/>
            <feBlend mode="normal" in2="shape" result="effect1_innerShadow_862_1496"/>
        </filter>
        <linearGradient id="paint0_linear_862_1496" x1="30" y1="0" x2="30" y2="60" gradientUnits="userSpaceOnUse">
            <stop stop-color="#343943"/>
            <stop offset="1"/>
        </linearGradient>
        <linearGradient id="paint1_linear_862_1496" x1="30" y1="15" x2="30" y2="45" gradientUnits="userSpaceOnUse">
            <stop offset="0.356721" stop-color="#F5F7F9"/>
            <stop offset="1" stop-color="#F5F7F9" stop-opacity="0.7"/>
        </linearGradient>
    </defs>
</svg>
