<svg width="60" height="60" viewBox="0 0 60 60" fill="none" xmlns="http://www.w3.org/2000/svg">
  <g filter="url(#filter0_i_862_1491)">
    <rect width="60" height="60" rx="30" fill="url(#paint0_linear_862_1491)"/>
    <path fill-rule="evenodd" clip-rule="evenodd" d="M15 22C15 19.7909 16.7909 18 19 18H32C34.2091 18 36 19.7909 36 22V38C36 40.2091 34.2091 42 32 42H19C16.7909 42 15 40.2091 15 38V22ZM31.5 25.5C31.5 27.1569 30.1569 28.5 28.5 28.5C26.8431 28.5 25.5 27.1569 25.5 25.5C25.5 23.8431 26.8431 22.5 28.5 22.5C30.1569 22.5 31.5 23.8431 31.5 25.5Z" fill="url(#paint1_linear_862_1491)"/>
    <path d="M41.5409 38.3102L38.25 34.7999V25.1999L41.5409 21.6896C42.781 20.3669 45 21.2444 45 23.0575V36.9423C45 38.7554 42.781 39.6329 41.5409 38.3102Z" fill="url(#paint2_linear_862_1491)"/>
  </g>
  <defs>
    <filter id="filter0_i_862_1491" x="-1" y="0" width="61" height="60" filterUnits="userSpaceOnUse" color-interpolation-filters="sRGB">
      <feFlood flood-opacity="0" result="BackgroundImageFix"/>
      <feBlend mode="normal" in="SourceGraphic" in2="BackgroundImageFix" result="shape"/>
      <feColorMatrix in="SourceAlpha" type="matrix" values="0 0 0 0 0 0 0 0 0 0 0 0 0 0 0 0 0 0 127 0" result="hardAlpha"/>
      <feOffset dx="-1"/>
      <feGaussianBlur stdDeviation="0.5"/>
      <feComposite in2="hardAlpha" operator="arithmetic" k2="-1" k3="1"/>
      <feColorMatrix type="matrix" values="0 0 0 0 1 0 0 0 0 1 0 0 0 0 1 0 0 0 0.2 0"/>
      <feBlend mode="normal" in2="shape" result="effect1_innerShadow_862_1491"/>
    </filter>
    <linearGradient id="paint0_linear_862_1491" x1="30" y1="0" x2="30" y2="60" gradientUnits="userSpaceOnUse">
      <stop stop-color="#343943"/>
      <stop offset="1"/>
    </linearGradient>
    <linearGradient id="paint1_linear_862_1491" x1="30" y1="18" x2="30" y2="42" gradientUnits="userSpaceOnUse">
      <stop offset="0.356721" stop-color="#F5F7F9"/>
      <stop offset="1" stop-color="#F5F7F9" stop-opacity="0.7"/>
    </linearGradient>
    <linearGradient id="paint2_linear_862_1491" x1="30" y1="18" x2="30" y2="42" gradientUnits="userSpaceOnUse">
      <stop offset="0.356721" stop-color="#F5F7F9"/>
      <stop offset="1" stop-color="#F5F7F9" stop-opacity="0.7"/>
    </linearGradient>
  </defs>
</svg>
