<svg width="154" height="172" viewBox="0 0 154 172" fill="none" xmlns="http://www.w3.org/2000/svg">
    <path fill-rule="evenodd" clip-rule="evenodd" d="M19.9557 23.3119L63.0612 3.13206C71.9816 -1.04402 82.164 -1.04402 91.0844 3.13205L134.019 23.2319C146.574 29.1097 154.816 42.3202 153.936 56.7628C150.561 112.161 135.525 137.204 94.88 166.257C84.1535 173.925 70.0038 173.906 59.2694 166.251C18.7487 137.355 3.15453 112.661 0.0527461 56.5685C-0.740654 42.2207 7.48739 29.149 19.9557 23.3119ZM107.495 73.0474C109.829 70.3666 109.559 66.2917 106.892 63.946C104.225 61.6002 100.171 61.8719 97.8373 64.5527L73.2837 92.7598C72.53 93.6257 71.2317 93.7416 70.3379 93.0229L55.3415 80.9635C52.5742 78.7382 48.5363 79.1892 46.3225 81.9708C44.1087 84.7524 44.5573 88.8114 47.3246 91.0367L62.3209 103.096C68.5775 108.127 77.6656 107.316 82.9418 101.255L107.495 73.0474Z" fill="white"/>
</svg>
